<svg aria-roledescription="flowchart-v2" role="graphics-document document" height="1395.8262939453125" xmlns="http://www.w3.org/2000/svg" width="933.6953125" id="mermaidSvg" xmlns:xlink="http://www.w3.org/1999/xlink" xmlns:ev="http://www.w3.org/2001/xml-events" style="overflow: hidden; height: 100%; width: 100%;"><g id="viewport-20251122164313044" class="svg-pan-zoom_viewport" transform="matrix(0.5881510948569318,0,0,0.5881510948569318,489.2029411841552,4.131139717815621)" style="transform: matrix(0.588151, 0, 0, 0.588151, 489.203, 4.13114);"><style>#mermaidSvg{font-size:14px;fill:#0d47a1;}#mermaidSvg .error-icon{fill:#fff3e0;}#mermaidSvg .error-text{fill:#000c1f;stroke:#000c1f;}#mermaidSvg .edge-thickness-normal{stroke-width:2px;}#mermaidSvg .edge-thickness-thick{stroke-width:3.5px;}#mermaidSvg .edge-pattern-solid{stroke-dasharray:0;}#mermaidSvg .edge-pattern-dashed{stroke-dasharray:3;}#mermaidSvg .edge-pattern-dotted{stroke-dasharray:2;}#mermaidSvg .marker{fill:#546e7a;stroke:#546e7a;}#mermaidSvg .marker.cross{stroke:#546e7a;}#mermaidSvg svg{font-size:14px;}#mermaidSvg .label{color:#0d47a1;}#mermaidSvg .cluster-label text{fill:#000c1f;}#mermaidSvg .cluster-label span,#mermaidSvg p{color:#000c1f;}#mermaidSvg .label text,#mermaidSvg span,#mermaidSvg p{fill:#0d47a1;color:#0d47a1;}#mermaidSvg .node rect,#mermaidSvg .node circle,#mermaidSvg .node ellipse,#mermaidSvg .node polygon,#mermaidSvg .node path{fill:#ffffff;stroke:#0277bd;stroke-width:1px;}#mermaidSvg .flowchart-label text{text-anchor:middle;}#mermaidSvg .node .katex path{fill:#000;stroke:#000;stroke-width:1px;}#mermaidSvg .node .label{text-align:center;}#mermaidSvg .node.clickable{cursor:pointer;}#mermaidSvg .arrowheadPath{fill:#0b0b0b;}#mermaidSvg .edgePath .path{stroke:#546e7a;stroke-width:2.0px;}#mermaidSvg .flowchart-link{stroke:#546e7a;fill:none;}#mermaidSvg .edgeLabel{background-color:#f3e5f5;text-align:center;}#mermaidSvg .edgeLabel rect{opacity:0.5;background-color:#f3e5f5;fill:#f3e5f5;}#mermaidSvg .labelBkg{background-color:rgba(243, 229, 245, 0.5);}#mermaidSvg .cluster rect{fill:#fafafa;stroke:#cfd8dc;stroke-width:1px;}#mermaidSvg .cluster text{fill:#000c1f;}#mermaidSvg .cluster span,#mermaidSvg p{color:#000c1f;}#mermaidSvg div.mermaidTooltip{position:absolute;text-align:center;max-width:200px;padding:2px;font-size:12px;background:#fff3e0;border:1px solid hsl(36.7741935484, 60%, 83.9215686275%);border-radius:2px;pointer-events:none;z-index:100;}#mermaidSvg .flowchartTitleText{text-anchor:middle;font-size:18px;fill:#0d47a1;}#mermaidSvg :root{--mermaid-font-family:"trebuchet ms",verdana,arial,sans-serif;}#mermaidSvg .data&gt;*{fill:#e3f2fd!important;stroke:#1e88e5!important;stroke-width:1.5px!important;rx:5!important;ry:5!important;}#mermaidSvg .data span{fill:#e3f2fd!important;stroke:#1e88e5!important;stroke-width:1.5px!important;rx:5!important;ry:5!important;}#mermaidSvg .proc&gt;*{fill:#f5f5f5!important;stroke:#424242!important;stroke-width:1.5px!important;rx:2!important;ry:2!important;}#mermaidSvg .proc span{fill:#f5f5f5!important;stroke:#424242!important;stroke-width:1.5px!important;rx:2!important;ry:2!important;}#mermaidSvg .llm&gt;*{fill:#e8eaf6!important;stroke:#3949ab!important;stroke-width:2px!important;rx:2!important;ry:2!important;}#mermaidSvg .llm span{fill:#e8eaf6!important;stroke:#3949ab!important;stroke-width:2px!important;rx:2!important;ry:2!important;}#mermaidSvg .algo&gt;*{fill:#fff3e0!important;stroke:#fb8c00!important;stroke-width:1.5px!important;}#mermaidSvg .algo span{fill:#fff3e0!important;stroke:#fb8c00!important;stroke-width:1.5px!important;}#mermaidSvg .eval&gt;*{fill:#f3e5f5!important;stroke:#8e24aa!important;stroke-width:1.5px!important;}#mermaidSvg .eval span{fill:#f3e5f5!important;stroke:#8e24aa!important;stroke-width:1.5px!important;}#mermaidSvg .out&gt;*{fill:#e0f2f1!important;stroke:#00897b!important;stroke-width:1.5px!important;stroke-dasharray:5 5!important;}#mermaidSvg .out span{fill:#e0f2f1!important;stroke:#00897b!important;stroke-width:1.5px!important;stroke-dasharray:5 5!important;}#mermaidSvg .phantom&gt;*{fill:none!important;stroke:none!important;}#mermaidSvg .phantom span{fill:none!important;stroke:none!important;}</style><g><marker orient="auto" markerHeight="12" markerWidth="12" markerUnits="userSpaceOnUse" refY="5" refX="6" viewBox="0 0 10 10" class="marker flowchart" id="mermaidSvg_flowchart-pointEnd"><path style="stroke-width: 1; stroke-dasharray: 1, 0;" class="arrowMarkerPath" d="M 0 0 L 10 5 L 0 10 z"/></marker><marker orient="auto" markerHeight="12" markerWidth="12" markerUnits="userSpaceOnUse" refY="5" refX="4.5" viewBox="0 0 10 10" class="marker flowchart" id="mermaidSvg_flowchart-pointStart"><path style="stroke-width: 1; stroke-dasharray: 1, 0;" class="arrowMarkerPath" d="M 0 5 L 10 10 L 10 0 z"/></marker><marker orient="auto" markerHeight="11" markerWidth="11" markerUnits="userSpaceOnUse" refY="5" refX="11" viewBox="0 0 10 10" class="marker flowchart" id="mermaidSvg_flowchart-circleEnd"><circle style="stroke-width: 1; stroke-dasharray: 1, 0;" class="arrowMarkerPath" r="5" cy="5" cx="5"/></marker><marker orient="auto" markerHeight="11" markerWidth="11" markerUnits="userSpaceOnUse" refY="5" refX="-1" viewBox="0 0 10 10" class="marker flowchart" id="mermaidSvg_flowchart-circleStart"><circle style="stroke-width: 1; stroke-dasharray: 1, 0;" class="arrowMarkerPath" r="5" cy="5" cx="5"/></marker><marker orient="auto" markerHeight="11" markerWidth="11" markerUnits="userSpaceOnUse" refY="5.2" refX="12" viewBox="0 0 11 11" class="marker cross flowchart" id="mermaidSvg_flowchart-crossEnd"><path style="stroke-width: 2; stroke-dasharray: 1, 0;" class="arrowMarkerPath" d="M 1,1 l 9,9 M 10,1 l -9,9"/></marker><marker orient="auto" markerHeight="11" markerWidth="11" markerUnits="userSpaceOnUse" refY="5.2" refX="-1" viewBox="0 0 11 11" class="marker cross flowchart" id="mermaidSvg_flowchart-crossStart"><path style="stroke-width: 2; stroke-dasharray: 1, 0;" class="arrowMarkerPath" d="M 1,1 l 9,9 M 10,1 l -9,9"/></marker><g class="root"><g class="clusters"><g id="L3" class="cluster default flowchart-label"><rect height="1106.5286331176758" width="251.25" y="273.29761505126953" x="0" ry="0" rx="0" style=""/><g transform="translate(32.98828125, 273.29761505126953)" class="cluster-label"><foreignObject height="16.5" width="185.2734375"><div style="display: inline-block; white-space: nowrap;" xmlns="http://www.w3.org/1999/xhtml"><span class="nodeLabel">Phase 4: Analysis &amp; Feedback</span></div></foreignObject></g></g><g id="L2" class="cluster default flowchart-label"><rect height="235.5" width="208.1171875" y="1029.8262481689453" x="709.578125" ry="0" rx="0" style=""/><g transform="translate(711.6171875, 1029.8262481689453)" class="cluster-label"><foreignObject height="16.5" width="204.0390625"><div style="display: inline-block; white-space: nowrap;" xmlns="http://www.w3.org/1999/xhtml"><span class="nodeLabel">Phase 3: Comparative Evaluation</span></div></foreignObject></g></g><g id="L1" class="cluster default flowchart-label"><rect height="642.7484588623047" width="415.046875" y="491.5777893066406" x="274.53125" ry="0" rx="0" style=""/><g transform="translate(364.0390625, 491.5777893066406)" class="cluster-label"><foreignObject height="16.5" width="236.03125"><div style="display: inline-block; white-space: nowrap;" xmlns="http://www.w3.org/1999/xhtml"><span class="nodeLabel">Phase 2: TDIA Core Detection Pipeline</span></div></foreignObject></g></g><g id="L0" class="cluster default flowchart-label"><rect height="418.5777893066406" width="531.7740859985352" y="0" x="341.828125" ry="0" rx="0" style=""/><g transform="translate(477.4690742492676, 0)" class="cluster-label"><foreignObject height="16.5" width="260.4921875"><div style="display: inline-block; white-space: nowrap;" xmlns="http://www.w3.org/1999/xhtml"><span class="nodeLabel">Phase 1: Data Generation &amp; Taint Injection</span></div></foreignObject></g></g><g id="PromptEngine" class="cluster default flowchart-label"><rect height="213.2484588623047" width="281.35221099853516" y="518.0777893066406" x="354.1803398132324" ry="0" rx="0" style=""/><g transform="translate(435.2861328125, 518.0777893066406)" class="cluster-label"><foreignObject height="16.5" width="119.140625"><div style="display: inline-block; white-space: nowrap;" xmlns="http://www.w3.org/1999/xhtml"><span class="nodeLabel">Intelligent Planning</span></div></foreignObject></g></g><g id="Execution" class="cluster default flowchart-label"><rect height="192.5" width="375.046875" y="784.3262481689453" x="294.53125" ry="0" rx="0" style=""/><g transform="translate(419.62109375, 784.3262481689453)" class="cluster-label"><foreignObject height="16.5" width="124.8671875"><div style="display: inline-block; white-space: nowrap;" xmlns="http://www.w3.org/1999/xhtml"><span class="nodeLabel">Dual-Path Execution</span></div></foreignObject></g></g></g><g class="edgePaths"><path marker-end="url(#mermaidSvg_flowchart-pointEnd)" style="fill:none;" class="edge-thickness-normal edge-pattern-solid flowchart-link LS-Raw LE-Injector" id="L-Raw-Injector-0" d="M434.599,115.632L433.585,120.077C432.571,124.521,430.543,133.409,430.72,141.513C430.897,149.618,433.278,156.938,434.469,160.598L435.659,164.258"/><path marker-end="url(#mermaidSvg_flowchart-pointEnd)" style="fill:none;" class="edge-thickness-normal edge-pattern-solid flowchart-link LS-Meta LE-Injector" id="L-Meta-Injector-0" d="M592.055,97.399L585.716,104.882C579.377,112.365,566.7,127.331,552.009,138.924C537.318,150.518,520.612,158.738,512.26,162.848L503.907,166.958"/><path marker-end="url(#mermaidSvg_flowchart-pointEnd)" style="fill:none;" class="edge-thickness-normal edge-pattern-solid flowchart-link LS-Injector LE-SynData" id="L-Injector-SynData-0" d="M445.348,220.798L445.264,225.131C445.181,229.464,445.014,238.131,444.931,246.881C444.848,255.631,444.848,264.464,444.848,272.414C444.848,280.364,444.848,287.431,444.848,290.964L444.848,294.498"/><path marker-end="url(#mermaidSvg_flowchart-pointEnd)" style="fill:none;" class="edge-thickness-normal edge-pattern-solid flowchart-link LS-ExecNode LE-Rules" id="L-ExecNode-Rules-0" d="M438.373,845.826L430.385,850.243C422.397,854.66,406.42,863.493,398.432,871.443C390.443,879.393,390.443,886.46,390.443,889.993L390.443,893.526"/><path marker-end="url(#mermaidSvg_flowchart-pointEnd)" style="fill:none;" class="edge-thickness-normal edge-pattern-solid flowchart-link LS-ExecNode LE-Deep" id="L-ExecNode-Deep-0" d="M504.287,845.826L512.935,850.243C521.582,854.66,538.876,863.493,547.523,871.443C556.17,879.393,556.17,886.46,556.17,889.993L556.17,893.526"/><path marker-end="url(#mermaidSvg_flowchart-pointEnd)" style="stroke-width: 3.5px;fill:none;" class="edge-thickness-thick edge-pattern-solid flowchart-link LS-SynData LE-PE" id="L-SynData-PE-0" d="M444.848,392.078L444.848,396.494C444.848,400.911,444.848,409.744,444.848,420.244C444.848,430.744,444.848,442.911,444.848,455.078C444.848,467.244,444.848,479.411,444.848,489.911C444.848,500.411,444.848,509.244,446.298,517.315C447.747,525.385,450.647,532.693,452.097,536.347L453.547,540"/><path marker-end="url(#mermaidSvg_flowchart-pointEnd)" style="fill:none;" class="edge-thickness-normal edge-pattern-solid flowchart-link LS-PE LE-Plan" id="L-PE-Plan-0" d="M470.025,616.826L470.025,621.243C470.025,625.66,470.025,634.493,470.092,642.526C470.159,650.56,470.293,657.794,470.36,661.41L470.427,665.027"/><path marker-end="url(#mermaidSvg_flowchart-pointEnd)" style="fill:none;" class="edge-thickness-normal edge-pattern-solid flowchart-link LS-Plan LE-ExecNode" id="L-Plan-ExecNode-0" d="M470.525,705.326L470.442,709.66C470.359,713.993,470.192,722.66,470.109,731.41C470.025,740.16,470.025,748.993,470.025,757.826C470.025,766.66,470.025,775.493,470.025,783.443C470.025,791.393,470.025,798.46,470.025,801.993L470.025,805.526"/><path marker-end="url(#mermaidSvg_flowchart-pointEnd)" style="fill:none;stroke-width:2px;stroke-dasharray:3;" class="edge-thickness-normal edge-pattern-dotted flowchart-link LS-SynData LE-Base" id="L-SynData-Base-0" d="M519.367,360.616L568.412,370.276C617.457,379.936,715.547,399.257,764.592,415.001C813.637,430.744,813.637,442.911,813.637,455.078C813.637,467.244,813.637,479.411,813.637,489.911C813.637,500.411,813.637,509.244,813.637,524.098C813.637,538.953,813.637,559.827,813.637,580.702C813.637,601.577,813.637,622.452,813.637,640.222C813.637,657.993,813.637,672.66,813.637,687.326C813.637,701.993,813.637,716.66,813.637,728.41C813.637,740.16,813.637,748.993,813.637,757.826C813.637,766.66,813.637,775.493,813.637,787.243C813.637,798.993,813.637,813.66,813.637,828.326C813.637,842.993,813.637,857.66,813.637,873.701C813.637,889.743,813.637,907.16,813.637,924.576C813.637,941.993,813.637,959.41,813.637,972.535C813.637,985.66,813.637,994.493,813.637,1003.326C813.637,1012.16,813.637,1020.993,813.637,1028.943C813.637,1036.893,813.637,1043.96,813.637,1047.493L813.637,1051.026"/><path marker-end="url(#mermaidSvg_flowchart-pointEnd)" style="fill:none;" class="edge-thickness-normal edge-pattern-solid flowchart-link LS-Rules LE-Fusion" id="L-Rules-Fusion-0" d="M390.443,950.326L390.443,954.743C390.443,959.16,390.443,967.993,390.443,976.826C390.443,985.66,390.443,994.493,390.443,1003.326C390.443,1012.16,390.443,1020.993,396.517,1029.423C402.59,1037.852,414.737,1045.878,420.81,1049.891L426.884,1053.904"/><path marker-end="url(#mermaidSvg_flowchart-pointEnd)" style="fill:none;" class="edge-thickness-normal edge-pattern-solid flowchart-link LS-Deep LE-Fusion" id="L-Deep-Fusion-0" d="M556.17,950.326L556.17,954.743C556.17,959.16,556.17,967.993,556.17,976.826C556.17,985.66,556.17,994.493,556.17,1003.326C556.17,1012.16,556.17,1020.993,549.721,1029.441C543.271,1037.89,530.372,1045.953,523.923,1049.985L517.474,1054.017"/><path marker-end="url(#mermaidSvg_flowchart-pointEnd)" style="stroke-width: 3.5px;fill:none;" class="edge-thickness-thick edge-pattern-solid flowchart-link LS-Fusion LE-Evaluator" id="L-Fusion-Evaluator-0" d="M470.525,1108.326L470.442,1112.66C470.359,1116.993,470.192,1125.66,522.956,1134.41C575.719,1143.16,681.413,1151.993,735.391,1159.984C789.369,1167.975,791.631,1175.124,792.761,1178.699L793.892,1182.273"/><path marker-end="url(#mermaidSvg_flowchart-pointEnd)" style="fill:none;" class="edge-thickness-normal edge-pattern-solid flowchart-link LS-Base LE-Evaluator" id="L-Base-Evaluator-0" d="M813.637,1107.826L813.637,1112.243C813.637,1116.66,813.637,1125.493,813.637,1134.326C813.637,1143.16,813.637,1151.993,812.957,1159.959C812.278,1167.924,810.92,1175.023,810.24,1178.572L809.561,1182.121"/><path marker-end="url(#mermaidSvg_flowchart-pointEnd)" style="fill:none;" class="edge-thickness-normal edge-pattern-solid flowchart-link LS-Evaluator LE-Report" id="L-Evaluator-Report-0" d="M803.637,1238.826L803.637,1243.243C803.637,1247.66,803.637,1256.493,693.73,1265.326C583.823,1274.16,364.009,1282.993,254.102,1290.943C144.195,1298.893,144.195,1305.96,144.195,1309.493L144.195,1313.026"/><path marker-end="url(#mermaidSvg_flowchart-pointEnd)" style="fill:none;" class="edge-thickness-normal edge-pattern-solid flowchart-link LS-Evaluator LE-Log" id="L-Evaluator-Log-0" d="M761.137,1210.09L644.266,1201.88C527.396,1193.669,293.655,1177.248,176.785,1164.62C59.914,1151.993,59.914,1143.16,59.914,1130.035C59.914,1116.91,59.914,1099.493,59.914,1082.076C59.914,1064.66,59.914,1047.243,59.914,1034.118C59.914,1020.993,59.914,1012.16,59.914,1003.326C59.914,994.493,59.914,985.66,59.914,972.535C59.914,959.41,59.914,941.993,59.914,924.576C59.914,907.16,59.914,889.743,59.914,873.701C59.914,857.66,59.914,842.993,59.914,828.326C59.914,813.66,59.914,798.993,59.914,787.243C59.914,775.493,59.914,766.66,59.914,757.826C59.914,748.993,59.914,740.16,59.914,728.41C59.914,716.66,59.914,701.993,59.914,687.326C59.914,672.66,59.914,657.993,59.914,640.222C59.914,622.452,59.914,601.577,59.914,580.702C59.914,559.827,59.914,538.953,59.914,524.098C59.914,509.244,59.914,500.411,59.914,489.911C59.914,479.411,59.914,467.244,59.914,455.078C59.914,442.911,59.914,430.744,64.538,416.245C69.163,401.746,78.411,384.914,83.036,376.499L87.66,368.083"/><path marker-end="url(#mermaidSvg_flowchart-pointEnd)" style="fill:none;stroke-width:2px;stroke-dasharray:3;" class="edge-thickness-normal edge-pattern-dotted flowchart-link LS-Log LE-PE" id="L-Log-PE-0" d="M112.926,363.438L119.804,372.628C126.682,381.818,140.439,400.198,147.317,415.471C154.195,430.744,154.195,442.911,154.195,455.078C154.195,467.244,154.195,479.411,154.195,489.911C154.195,500.411,154.195,509.244,195.685,521.888C237.174,534.531,320.153,550.985,361.642,559.211L403.131,567.438"/><path style="stroke-width: 0;fill:none;" class="edge-thickness-thick edge-pattern-solid flowchart-link LS-L0 LE-L1" id="L-L0-L1-0" d="M615.533,418.578L615.533,455.078"/></g><g class="edgeLabels"><g class="edgeLabel"><g transform="translate(0, 0)" class="label"><foreignObject height="0" width="0"><div style="display: inline-block; white-space: nowrap;" xmlns="http://www.w3.org/1999/xhtml"><span class="edgeLabel"></span></div></foreignObject></g></g><g class="edgeLabel"><g transform="translate(0, 0)" class="label"><foreignObject height="0" width="0"><div style="display: inline-block; white-space: nowrap;" xmlns="http://www.w3.org/1999/xhtml"><span class="edgeLabel"></span></div></foreignObject></g></g><g class="edgeLabel"><g transform="translate(0, 0)" class="label"><foreignObject height="0" width="0"><div style="display: inline-block; white-space: nowrap;" xmlns="http://www.w3.org/1999/xhtml"><span class="edgeLabel"></span></div></foreignObject></g></g><g class="edgeLabel"><g transform="translate(0, 0)" class="label"><foreignObject height="0" width="0"><div style="display: inline-block; white-space: nowrap;" xmlns="http://www.w3.org/1999/xhtml"><span class="edgeLabel"></span></div></foreignObject></g></g><g class="edgeLabel"><g transform="translate(0, 0)" class="label"><foreignObject height="0" width="0"><div style="display: inline-block; white-space: nowrap;" xmlns="http://www.w3.org/1999/xhtml"><span class="edgeLabel"></span></div></foreignObject></g></g><g class="edgeLabel"><g transform="translate(0, 0)" class="label"><foreignObject height="0" width="0"><div style="display: inline-block; white-space: nowrap;" xmlns="http://www.w3.org/1999/xhtml"><span class="edgeLabel"></span></div></foreignObject></g></g><g class="edgeLabel"><g transform="translate(0, 0)" class="label"><foreignObject height="0" width="0"><div style="display: inline-block; white-space: nowrap;" xmlns="http://www.w3.org/1999/xhtml"><span class="edgeLabel"></span></div></foreignObject></g></g><g class="edgeLabel"><g transform="translate(0, 0)" class="label"><foreignObject height="0" width="0"><div style="display: inline-block; white-space: nowrap;" xmlns="http://www.w3.org/1999/xhtml"><span class="edgeLabel"></span></div></foreignObject></g></g><g class="edgeLabel"><g transform="translate(0, 0)" class="label"><foreignObject height="0" width="0"><div style="display: inline-block; white-space: nowrap;" xmlns="http://www.w3.org/1999/xhtml"><span class="edgeLabel"></span></div></foreignObject></g></g><g class="edgeLabel"><g transform="translate(0, 0)" class="label"><foreignObject height="0" width="0"><div style="display: inline-block; white-space: nowrap;" xmlns="http://www.w3.org/1999/xhtml"><span class="edgeLabel"></span></div></foreignObject></g></g><g class="edgeLabel"><g transform="translate(0, 0)" class="label"><foreignObject height="0" width="0"><div style="display: inline-block; white-space: nowrap;" xmlns="http://www.w3.org/1999/xhtml"><span class="edgeLabel"></span></div></foreignObject></g></g><g class="edgeLabel"><g transform="translate(0, 0)" class="label"><foreignObject height="0" width="0"><div style="display: inline-block; white-space: nowrap;" xmlns="http://www.w3.org/1999/xhtml"><span class="edgeLabel"></span></div></foreignObject></g></g><g class="edgeLabel"><g transform="translate(0, 0)" class="label"><foreignObject height="0" width="0"><div style="display: inline-block; white-space: nowrap;" xmlns="http://www.w3.org/1999/xhtml"><span class="edgeLabel"></span></div></foreignObject></g></g><g class="edgeLabel"><g transform="translate(0, 0)" class="label"><foreignObject height="0" width="0"><div style="display: inline-block; white-space: nowrap;" xmlns="http://www.w3.org/1999/xhtml"><span class="edgeLabel"></span></div></foreignObject></g></g><g class="edgeLabel"><g transform="translate(0, 0)" class="label"><foreignObject height="0" width="0"><div style="display: inline-block; white-space: nowrap;" xmlns="http://www.w3.org/1999/xhtml"><span class="edgeLabel"></span></div></foreignObject></g></g><g transform="translate(154.1953125, 455.0777893066406)" class="edgeLabel"><g transform="translate(-74.28125, -10)" class="label"><foreignObject height="20" width="148.5625"><div style="display: inline-block; white-space: nowrap;" xmlns="http://www.w3.org/1999/xhtml"><span class="edgeLabel">反馈优化 (Optimization)</span></div></foreignObject></g></g><g class="edgeLabel"><g transform="translate(0, 0)" class="label"><foreignObject height="0" width="0"><div style="display: inline-block; white-space: nowrap;" xmlns="http://www.w3.org/1999/xhtml"><span class="edgeLabel"></span></div></foreignObject></g></g></g><g class="nodes"><g transform="translate(144.1953125, 1335.8262481689453)" data-id="Report" data-node="true" id="flowchart-Report-780" class="node default out flowchart-label"><rect height="35" width="128.65625" y="-17.5" x="-64.328125" ry="0" rx="0" style="" class="basic label-container"/><g transform="translate(-56.828125, -10)" style="" class="label"><rect/><foreignObject height="20" width="113.65625"><div style="display: inline-block; white-space: nowrap;" xmlns="http://www.w3.org/1999/xhtml"><span class="nodeLabel">可视化报告 &amp; 监控</span></div></foreignObject></g></g><g transform="translate(99.828125, 345.9377021789551)" data-id="Log" data-node="true" id="flowchart-Log-781" class="node default out flowchart-label"><rect height="35" width="142.65625" y="-17.5" x="-71.328125" ry="0" rx="0" style="" class="basic label-container"/><g transform="translate(-63.828125, -10)" style="" class="label"><rect/><foreignObject height="20" width="127.65625"><div style="display: inline-block; white-space: nowrap;" xmlns="http://www.w3.org/1999/xhtml"><span class="nodeLabel">审计日志 &amp; 错误分析</span></div></foreignObject></g></g><g transform="translate(813.63671875, 1082.0762481689453)" data-id="Base" data-node="true" id="flowchart-Base-778" class="node default algo flowchart-label"><rect height="51.5" width="151.1171875" y="-25.75" x="-75.55859375" ry="0" rx="0" style="" class="basic label-container"/><g transform="translate(-68.05859375, -18.25)" style="" class="label"><rect/><foreignObject height="36.5" width="136.1171875"><div style="display: inline-block; white-space: nowrap;" xmlns="http://www.w3.org/1999/xhtml"><span class="nodeLabel">传统数值基线<br />(Isolation Forest / AE)</span></div></foreignObject></g></g><g transform="translate(803.63671875, 1213.0762481689453)" data-id="Evaluator" data-node="true" id="flowchart-Evaluator-779" class="node default eval flowchart-label"><rect height="51.5" width="85" y="-25.75" x="-42.5" ry="0" rx="0" style="" class="basic label-container"/><g transform="translate(-35, -18.25)" style="" class="label"><rect/><foreignObject height="36.5" width="70"><div style="display: inline-block; white-space: nowrap;" xmlns="http://www.w3.org/1999/xhtml"><span class="nodeLabel">综合评估器<br />(Evaluator)</span></div></foreignObject></g></g><g transform="translate(470.025390625, 1082.0762481689453)" data-id="Fusion" data-node="true" id="flowchart-Fusion-777" class="node default proc flowchart-label"><polygon style="" transform="translate(-74.6171875,25.75)" class="label-container" points="12.875,0 136.359375,0 149.234375,-25.75 136.359375,-51.5 12.875,-51.5 0,-25.75"/><g transform="translate(-54.2421875, -18.25)" style="" class="label"><rect/><foreignObject height="36.5" width="108.484375"><div style="display: inline-block; white-space: nowrap;" xmlns="http://www.w3.org/1999/xhtml"><span class="nodeLabel">结果融合与决策<br />(Decision Fusion)</span></div></foreignObject></g></g><g transform="translate(470.025390625, 828.3262481689453)" data-id="ExecNode" data-node="true" id="flowchart-ExecNode-770" class="node default proc flowchart-label"><rect height="35" width="175.9140625" y="-17.5" x="-87.95703125" ry="0" rx="0" style="" class="basic label-container"/><g transform="translate(-80.45703125, -10)" style="" class="label"><rect/><foreignObject height="20" width="160.9140625"><div style="display: inline-block; white-space: nowrap;" xmlns="http://www.w3.org/1999/xhtml"><span class="nodeLabel">计划执行器 (Orchestrator)</span></div></foreignObject></g></g><g transform="translate(390.443359375, 924.5762481689453)" data-id="Rules" data-node="true" id="flowchart-Rules-771" class="node default algo flowchart-label"><rect height="51.5" width="93.734375" y="-25.75" x="-46.8671875" ry="0" rx="0" style="" class="basic label-container"/><g transform="translate(-39.3671875, -18.25)" style="" class="label"><rect/><foreignObject height="36.5" width="78.734375"><div style="display: inline-block; white-space: nowrap;" xmlns="http://www.w3.org/1999/xhtml"><span class="nodeLabel">规则引擎<br />(Rule-based)</span></div></foreignObject></g></g><g transform="translate(556.169921875, 924.5762481689453)" data-id="Deep" data-node="true" id="flowchart-Deep-772" class="node default algo flowchart-label"><rect height="51.5" width="163.71875" y="-25.75" x="-81.859375" ry="0" rx="0" style="" class="basic label-container"/><g transform="translate(-74.359375, -18.25)" style="" class="label"><rect/><foreignObject height="36.5" width="148.71875"><div style="display: inline-block; white-space: nowrap;" xmlns="http://www.w3.org/1999/xhtml"><span class="nodeLabel">深度模型<br />(Deep Learning Models)</span></div></foreignObject></g></g><g transform="translate(470.025390625, 580.702018737793)" data-id="PE" data-node="true" id="flowchart-PE-768" class="node default llm flowchart-label"><path transform="translate(-61.6953125,-36.128514814115874)" d="M 0,12.419009876077247 a 61.6953125,12.419009876077247 0,0,0 123.390625 0 a 61.6953125,12.419009876077247 0,0,0 -123.390625 0 l 0,47.41900987607725 a 61.6953125,12.419009876077247 0,0,0 123.390625 0 l 0,-47.41900987607725" style=""/><g transform="translate(-54.1953125, -10)" style="" class="label"><rect/><foreignObject height="20" width="108.390625"><div style="display: inline-block; white-space: nowrap;" xmlns="http://www.w3.org/1999/xhtml"><span class="nodeLabel">LLM Prompt 引擎</span></div></foreignObject></g></g><g transform="translate(470.025390625, 687.3262481689453)" data-id="Plan" data-node="true" id="flowchart-Plan-769" class="node default data flowchart-label"><polygon style="" transform="translate(-55.06640625,17.5)" class="label-container" points="-11.666666666666666,0 104.29947916666667,0 121.79947916666667,-35 5.833333333333333,-35"/><g transform="translate(-47.56640625, -10)" style="" class="label"><rect/><foreignObject height="20" width="95.1328125"><div style="display: inline-block; white-space: nowrap;" xmlns="http://www.w3.org/1999/xhtml"><span class="nodeLabel">JSON 检测计划</span></div></foreignObject></g></g><g transform="translate(444.84765625, 71.14880752563477)" data-id="Raw" data-node="true" id="flowchart-Raw-758" class="node default data flowchart-label"><path transform="translate(-63.5,-44.648809523809526)" d="M 0,12.59920634920635 a 63.5,12.59920634920635 0,0,0 127 0 a 63.5,12.59920634920635 0,0,0 -127 0 l 0,64.09920634920636 a 63.5,12.59920634920635 0,0,0 127 0 l 0,-64.09920634920636" style=""/><g transform="translate(-56, -18.25)" style="" class="label"><rect/><foreignObject height="36.5" width="112"><div style="display: inline-block; white-space: nowrap;" xmlns="http://www.w3.org/1999/xhtml"><span class="nodeLabel">原始居民用电数据<br />(Raw Data)</span></div></foreignObject></g></g><g transform="translate(612.8424453735352, 71.14880752563477)" data-id="Meta" data-node="true" id="flowchart-Meta-759" class="node default data flowchart-label"><polygon style="" transform="translate(-50.328125,25.75)" class="label-container" points="-17.166666666666668,0 92.07291666666667,0 117.82291666666667,-51.5 8.583333333333334,-51.5"/><g transform="translate(-42.828125, -18.25)" style="" class="label"><rect/><foreignObject height="36.5" width="85.65625"><div style="display: inline-block; white-space: nowrap;" xmlns="http://www.w3.org/1999/xhtml"><span class="nodeLabel">元数据 &amp; 语义<br />(Metadata)</span></div></foreignObject></g></g><g transform="translate(444.84765625, 194.54761505126953)" data-id="Injector" data-node="true" id="flowchart-Injector-760" class="node default proc flowchart-label"><polygon style="" transform="translate(-52.93359375,25.75)" class="label-container" points="0,0 105.8671875,0 105.8671875,-51.5 0,-51.5 0,0 -8,0 113.8671875,0 113.8671875,-51.5 -8,-51.5 -8,0"/><g transform="translate(-45.43359375, -18.25)" style="" class="label"><rect/><foreignObject height="36.5" width="90.8671875"><div style="display: inline-block; white-space: nowrap;" xmlns="http://www.w3.org/1999/xhtml"><span class="nodeLabel">污点注入器<br />(Taint Injector)</span></div></foreignObject></g></g><g transform="translate(444.84765625, 345.9377021789551)" data-id="SynData" data-node="true" id="flowchart-SynData-761" class="node default data flowchart-label"><path transform="translate(-74.51953125,-46.14477435356502)" d="M 0,13.596516235710011 a 74.51953125,13.596516235710011 0,0,0 149.0390625 0 a 74.51953125,13.596516235710011 0,0,0 -149.0390625 0 l 0,65.09651623571001 a 74.51953125,13.596516235710011 0,0,0 149.0390625 0 l 0,-65.09651623571001" style=""/><g transform="translate(-67.01953125, -18.25)" style="" class="label"><rect/><foreignObject height="36.5" width="134.0390625"><div style="display: inline-block; white-space: nowrap;" xmlns="http://www.w3.org/1999/xhtml"><span class="nodeLabel">半合成带标签数据<br />(Semi-synthetic Data)</span></div></foreignObject></g></g></g></g></g></g></svg>